<svg xmlns="http://www.w3.org/2000/svg" viewBox="0 0 109.5 124.5" fill="none">
  <path fill="#95BF47" d="M74.7 14.8s-.3 0-.7.1c-.4-1.1-1-2.2-1.7-3.2-2.5-3.8-6.1-5.8-10.5-5.8h-.3c-.3-.4-.6-.7-.9-1-1.1-1.2-2.6-1.8-4.3-1.7-3.3.1-6.6 2.5-9.3 6.8-1.9 3-3.3 6.8-3.7 9.7l-12.7 3.9c-3.7 1.2-3.9 1.3-4.3 4.8-.4 2.7-10.3 79.3-10.3 79.3l77.2 13.3V14.5c-.8.1-1.5.2-2.2.2s-1.4.1-2.1.1h-.3zM56.4 20l-10.5 3.2c.9-3.6 2.7-7.2 4.9-9.6.8-.9 2-1.9 3.3-2.5.7 2.1 1.7 5.1 2.3 8.9zm-5.7-12c1.1 0 2 .2 2.7.7-1.2.6-2.4 1.6-3.5 2.8-2.9 3.1-5.1 7.9-6 12.6l-7.9 2.4c1.6-7 7.1-18.2 14.7-18.5zm4.1 55.4c.3 5.1 13.8 6.2 14.6 18.2.6 9.4-5 15.8-13 16.3-9.7.6-15-5.1-15-5.1l2-8.6s5.4 4.1 9.7 3.8c2.8-.2 3.8-2.5 3.7-4.1-.4-6.7-11.4-6.3-12.1-17.3-.6-9.3 5.5-18.7 18.9-19.6 5.2-.3 7.8 1 7.8 1l-3 11.3s-3.4-1.5-7.4-1.3c-5.9.4-6.2 4.1-6.2 5.4zm14.1-43.7c-1.2 0-2.2-.1-3.3-.3-.6-3.8-1.7-7-3-9.5 3.8.7 6.3 5 7.2 9.8h-.9z"/>
  <path fill="#5E8E3E" d="M75.4 14.9c-.7 0-1.4.1-2.1.1s-1.4.1-2.1.1h-.3V124l32.1-8s-15-101.8-15.2-103.2c-.1-1.3-1.1-1.9-2.2-2.1-.7-.1-1.5.1-2.3.1h-.3 0c.1 0 0 0-.3 0h-.3c-.1 4.1-.1 4.1-.1 4.1l-7.2-3.1v2 1z"/>
</svg>
